<svg xmlns="http://www.w3.org/2000/svg" viewBox="0 0 168 168" width="100" height="100">
  <!-- Spotify Green Circle -->
  <circle cx="84" cy="84" r="84" fill="#1ED760" />
  
  <!-- Sound Waves -->
  <path fill="#000000" d="M120.1 115.1c-1.7 2.8-5.3 3.7-8.1 2.1-22.1-13.5-49.9-16.5-82.9-9-3.2.7-6.3-1.3-7-4.5s1.3-6.3 4.5-7c36.7-8.2 68.1-4.6 93.2 11.1 2.7 1.6 3.6 5.2 2.1 8.3zm11.2-22.8c-2.1 3.3-6.5 4.3-9.8 2.2-25.3-15.4-63.8-19.8-93.6-10.8-3.7 1.1-7.6-1-8.7-4.7s1-7.6 4.7-8.7c35.3-10.3 79.2-5.3 109.2 12.1 3.3 2 4.4 6.3 2.2 9.9zm.9-24.1c-29.1-17.2-77.3-18.8-104.8-10.2-4.3 1.4-9-1-10.4-5.3-1.4-4.3 1-9 5.3-10.4 32.2-9.7 86.7-7.8 121.8 12.5 4 2.3 5.4 7.4 3.1 11.4-2.2 4.1-7.3 5.5-11.3 3z"/>
</svg>
